<?xml version="1.0" encoding="utf-8" ?>
<svg baseProfile="full" height="1024" version="1.1" width="1024" xmlns="http://www.w3.org/2000/svg" xmlns:ev="http://www.w3.org/2001/xml-events" xmlns:xlink="http://www.w3.org/1999/xlink"><defs /><polygon fill="lime" points="573,740 574,741 574,744 596,744 596,743 595,742 595,740" stroke="black" stroke-width="1" /><polygon fill="lime" points="518,740 518,743 517,744 538,744 538,740" stroke="black" stroke-width="1" /><polygon fill="lime" points="482,740 482,744 503,744 503,740" stroke="black" stroke-width="1" /><polygon fill="lime" points="407,740 407,744 428,744 427,743 427,741 428,740" stroke="black" stroke-width="1" /><polygon fill="lime" points="321,740 321,744 342,744 342,740" stroke="black" stroke-width="1" /><polygon fill="lime" points="65,740 65,744 88,744 88,740" stroke="black" stroke-width="1" /><polygon fill="lime" points="955,739 956,740 956,741 957,742 957,744 979,744 979,743 978,742 978,739" stroke="black" stroke-width="1" /><polygon fill="lime" points="907,739 907,744 928,744 928,739" stroke="black" stroke-width="1" /><polygon fill="lime" points="838,739 838,744 893,744 893,739" stroke="black" stroke-width="1" /><polygon fill="lime" points="783,739 783,744 805,744 805,739" stroke="black" stroke-width="1" /><polygon fill="lime" points="691,739 692,740 693,740 694,741 696,741 697,742 698,742 699,743 703,743 704,744 727,744 728,743 733,743 734,742 736,742 737,741 738,741 739,740 740,740 741,739" stroke="black" stroke-width="1" /><polygon fill="lime" points="611,739 612,740 613,740 614,741 615,741 616,742 618,742 619,743 622,743 623,744 646,744 647,743 651,743 652,742 653,742 654,741 655,741 656,740 657,740 658,739 659,739" stroke="black" stroke-width="1" /><polygon fill="lime" points="273,739 273,744 295,744 295,739" stroke="black" stroke-width="1" /><polygon fill="lime" points="199,739 200,740 201,740 202,741 203,741 204,742 206,742 207,743 211,743 212,744 235,744 236,743 241,743 242,742 244,742 245,741 246,741 247,740 248,740 249,739" stroke="black" stroke-width="1" /><polygon fill="lime" points="121,739 121,744 177,744 177,739" stroke="black" stroke-width="1" /><polygon fill="lime" points="321,724 321,733 342,733 342,724" stroke="black" stroke-width="1" /><polygon fill="lime" points="951,723 951,724 952,725 952,727 953,728 953,730 954,731 954,732 976,732 975,731 975,730 974,729 974,727 973,726 973,724 972,723" stroke="black" stroke-width="1" /><polygon fill="lime" points="907,723 907,732 928,732 928,723" stroke="black" stroke-width="1" /><polygon fill="lime" points="838,723 838,732 893,732 893,723 888,723 887,724 886,723 885,724 880,724 879,723 862,723 861,724 860,723" stroke="black" stroke-width="1" /><polygon fill="lime" points="783,723 783,733 784,732 804,732 805,733 805,723" stroke="black" stroke-width="1" /><polygon fill="lime" points="683,723 683,724 684,725 684,728 685,729 685,731 687,733 688,732 715,732 716,733 735,733 736,732 746,732 747,733 747,732 748,731 748,729 749,728 749,725 750,724 750,723 725,723 724,724 706,724 705,723" stroke="black" stroke-width="1" /><polygon fill="lime" points="603,723 603,726 604,727 604,729 605,730 605,732 606,733 607,732 662,732 663,733 665,731 665,728 666,727 666,723 640,723 639,724 624,724 623,723" stroke="black" stroke-width="1" /><polygon fill="lime" points="571,723 571,724 572,725 572,732 573,733 593,733 593,728 592,727 592,723" stroke="black" stroke-width="1" /><polygon fill="lime" points="520,723 520,728 519,729 519,733 539,733 539,728 540,727 540,723" stroke="black" stroke-width="1" /><polygon fill="lime" points="483,723 482,724 482,728 483,729 482,730 483,731 482,732 483,733 503,733 503,723" stroke="black" stroke-width="1" /><polygon fill="lime" points="452,723 452,724 453,725 453,727 454,728 454,730 455,731 455,733 455,731 456,730 456,728 457,727 457,726 458,725 458,724 453,724" stroke="black" stroke-width="1" /><polygon fill="lime" points="408,723 407,724 407,725 408,726 408,731 407,732 408,733 427,733 428,732 427,731 427,725 428,724 427,723 426,724 409,724" stroke="black" stroke-width="1" /><polygon fill="lime" points="295,723 294,724 273,724 273,733 295,733" stroke="black" stroke-width="1" /><polygon fill="lime" points="190,723 190,725 191,726 191,729 192,730 192,731 194,733 195,733 196,732 197,732 198,733 254,733 255,732 255,731 256,730 256,728 257,727 257,723 256,724 191,724" stroke="black" stroke-width="1" /><polygon fill="lime" points="121,723 121,733 177,733 177,724 122,724" stroke="black" stroke-width="1" /><polygon fill="lime" points="65,723 65,733 88,733 88,724 66,724" stroke="black" stroke-width="1" /><polygon fill="lime" points="945,706 945,707 946,708 946,710 947,711 947,712 948,713 948,715 949,716 949,717 970,717 970,714 969,713 969,711 968,710 968,708 967,707 967,706" stroke="black" stroke-width="1" /><polygon fill="lime" points="907,706 907,717 928,717 928,707 929,706" stroke="black" stroke-width="1" /><polygon fill="lime" points="838,706 838,717 859,717 859,706" stroke="black" stroke-width="1" /><polygon fill="lime" points="783,706 783,717 805,717 805,706" stroke="black" stroke-width="1" /><polygon fill="lime" points="728,706 728,717 750,717 750,706" stroke="black" stroke-width="1" /><polygon fill="lime" points="682,706 682,717 704,717 703,716 703,708 704,707 703,706" stroke="black" stroke-width="1" /><polygon fill="lime" points="643,706 643,717 666,717 666,706" stroke="black" stroke-width="1" /><polygon fill="lime" points="603,706 603,717 621,717 621,706" stroke="black" stroke-width="1" /><polygon fill="lime" points="523,706 523,709 522,710 522,716 521,717 541,717 541,712 543,710 568,710 570,712 570,717 591,717 591,715 590,714 590,707 589,706" stroke="black" stroke-width="1" /><polygon fill="lime" points="482,706 482,717 503,717 503,706" stroke="black" stroke-width="1" /><polygon fill="lime" points="446,706 447,707 447,709 448,710 448,711 449,712 449,714 450,715 450,717 460,717 460,715 461,714 461,711 462,710 462,708 463,707 463,706" stroke="black" stroke-width="1" /><polygon fill="lime" points="407,706 407,711 408,712 408,716 407,717 428,717 428,707 427,706" stroke="black" stroke-width="1" /><polygon fill="lime" points="321,706 321,717 343,717 343,706" stroke="black" stroke-width="1" /><polygon fill="lime" points="273,706 273,717 295,717 295,706" stroke="black" stroke-width="1" /><polygon fill="lime" points="235,706 235,717 258,717 258,706" stroke="black" stroke-width="1" /><polygon fill="lime" points="189,706 189,716 190,717 211,717 211,706" stroke="black" stroke-width="1" /><polygon fill="lime" points="121,706 121,717 143,717 143,706" stroke="black" stroke-width="1" /><polygon fill="lime" points="65,706 65,717 88,717 88,706" stroke="black" stroke-width="1" /><polygon fill="lime" points="683,698 683,699 682,700 704,700 703,699 704,698" stroke="black" stroke-width="1" /><polygon fill="lime" points="603,698 603,700 621,700 621,698" stroke="black" stroke-width="1" /><polygon fill="lime" points="407,690 407,700 428,700 428,690" stroke="black" stroke-width="1" /><polygon fill="lime" points="272,690 273,691 272,692 272,696 273,697 272,698 273,699 272,700 295,700 295,690" stroke="black" stroke-width="1" /><polygon fill="lime" points="907,689 907,700 929,700 928,699 928,691 930,689 936,689 939,692 939,693 940,694 940,696 941,697 941,698 942,699 942,700 965,700 965,699 964,698 964,696 963,695 963,693 962,692 962,690 961,689" stroke="black" stroke-width="1" /><polygon fill="lime" points="838,689 838,700 859,700 859,690 860,689" stroke="black" stroke-width="1" /><polygon fill="lime" points="783,689 783,700 805,700 805,689" stroke="black" stroke-width="1" /><polygon fill="lime" points="723,689 723,690 726,693 726,694 727,695 727,696 728,697 728,700 750,700 750,689" stroke="black" stroke-width="1" /><polygon fill="lime" points="666,689 665,690 643,690 643,700 666,700" stroke="black" stroke-width="1" /><polygon fill="lime" points="525,689 525,695 524,696 524,700 588,700 588,695 587,694 587,689 566,689 565,690 548,690 547,689" stroke="black" stroke-width="1" /><polygon fill="lime" points="482,689 482,700 503,700 503,689" stroke="black" stroke-width="1" /><polygon fill="lime" points="441,689 441,690 442,691 442,693 443,694 443,696 444,697 444,699 445,700 445,701 446,700 465,700 466,699 466,697 467,696 467,694 468,693 468,691 469,690 469,689 465,689 464,690 442,690" stroke="black" stroke-width="1" /><polygon fill="lime" points="321,689 321,700 343,700 343,689 342,689 341,690 322,690" stroke="black" stroke-width="1" /><polygon fill="lime" points="190,689 189,690 190,691 190,699 189,700 211,700 211,690 191,690" stroke="black" stroke-width="1" /><polygon fill="lime" points="121,689 121,700 142,700 143,701 143,689" stroke="black" stroke-width="1" /><polygon fill="lime" points="65,689 65,700 88,700 88,689" stroke="black" stroke-width="1" /><polygon fill="lime" points="357,676 356,677 356,681 392,681 392,676 391,677 384,677 383,676 375,676 374,677 373,677 372,676 370,676 369,677 358,677" stroke="black" stroke-width="1" /><polygon fill="lime" points="783,672 783,684 784,683 785,684 799,684 800,683 804,683 805,684 805,672" stroke="black" stroke-width="1" /><polygon fill="lime" points="701,672 705,676 706,676 711,681 712,681 714,683 715,683 716,684 723,684 724,683 725,684 727,684 728,683 730,683 731,684 732,683 734,683 735,684 742,684 743,683 744,684 748,684 748,682 744,678 744,677 743,676 742,676 738,672" stroke="black" stroke-width="1" /><polygon fill="lime" points="643,672 643,684 644,683 645,683 646,684 647,683 665,683 666,684 666,672" stroke="black" stroke-width="1" /><polygon fill="lime" points="563,672 564,673 564,681 565,682 565,684 566,683 578,683 579,684 580,683 581,683 582,684 586,684 586,683 585,682 585,676 584,675 584,672" stroke="black" stroke-width="1" /><polygon fill="lime" points="528,672 528,674 527,675 527,682 526,683 526,684 527,684 528,683 529,684 530,684 531,683 532,684 533,684 534,683 535,684 536,683 543,683 544,684 546,684 547,683 547,677 548,676 548,672" stroke="black" stroke-width="1" /><polygon fill="lime" points="482,672 482,684 483,683 502,683 503,684 504,683 503,682 503,672" stroke="black" stroke-width="1" /><polygon fill="lime" points="435,672 436,673 436,674 437,675 437,677 438,678 438,681 439,682 439,683 440,683 441,684 443,684 444,683 448,683 449,684 451,684 452,683 453,683 454,684 456,684 457,683 469,683 470,684 471,683 471,681 472,680 472,677 473,676 473,674 474,673 474,672 457,672 457,675 455,677 454,676 454,673 453,672" stroke="black" stroke-width="1" /><polygon fill="lime" points="407,672 407,684 408,683 417,683 418,684 419,684 420,683 423,683 424,684 428,684 428,672" stroke="black" stroke-width="1" /><polygon fill="lime" points="272,672 272,673 273,674 273,684 295,684 295,680 296,679 320,679 321,680 321,684 343,684 343,672" stroke="black" stroke-width="1" /><polygon fill="lime" points="189,672 189,681 190,682 189,683 190,684 192,684 193,683 210,683 211,684 211,672" stroke="black" stroke-width="1" /><polygon fill="lime" points="65,672 65,684 73,684 74,683 86,683 87,684 88,684 88,672" stroke="black" stroke-width="1" /><polygon fill="lime" points="930,671 929,672 907,672 907,684 920,684 921,683 922,684 925,684 926,683 927,683 928,684 931,684 932,683 933,684 937,684 938,683 941,683 942,684 951,684 952,683 956,683 957,684 958,683 959,683 960,684 964,684 965,683 966,684 967,684 968,683 970,683 974,679 974,678 975,677 975,675 976,674 976,672 953,672 952,671" stroke="black" stroke-width="1" /><polygon fill="lime" points="889,671 888,672 838,672 838,684 840,684 841,683 847,683 848,684 859,684 859,680 860,679 889,679" stroke="black" stroke-width="1" /><polygon fill="lime" points="172,671 171,672 121,672 121,684 123,684 124,683 142,683 143,684 143,680 144,679 172,679" stroke="black" stroke-width="1" /><polygon fill="lime" points="356,662 356,670 392,670 392,662" stroke="black" stroke-width="1" /><polygon fill="lime" points="907,654 907,667 908,666 927,666 928,667 929,667 929,654" stroke="black" stroke-width="1" /><polygon fill="lime" points="783,654 783,667 784,666 804,666 805,667 805,654" stroke="black" stroke-width="1" /><polygon fill="lime" points="684,654 685,655 685,656 686,657 686,658 694,666 695,666 696,667 697,666 702,666 703,667 704,666 706,666 707,667 708,666 709,667 710,666 727,666 728,667 732,667 731,666 730,666 726,662 725,662 723,660 722,660 719,657 718,657 716,655 715,655 714,654" stroke="black" stroke-width="1" /><polygon fill="lime" points="530,654 530,661 529,662 529,667 532,667 533,666 548,666 549,667 549,661 550,660 550,655 551,654" stroke="black" stroke-width="1" /><polygon fill="lime" points="462,654 461,655 461,657 460,658 460,662 459,663 459,666 458,667 463,667 464,666 473,666 474,667 475,667 476,666 476,665 477,664 477,663 478,662 478,660 479,659 479,657 481,655 482,656 482,667 483,666 502,666 503,667 504,666 504,654" stroke="black" stroke-width="1" /><polygon fill="lime" points="407,654 407,666 414,666 415,667 428,667 428,665 427,664 428,663 428,662 427,661 427,656 428,655 429,655 430,656 430,658 431,659 431,661 432,662 432,663 433,664 433,666 434,667 438,667 439,666 448,666 449,667 450,666 451,666 452,667 452,665 451,664 451,661 450,660 450,656 449,655 449,654" stroke="black" stroke-width="1" /><polygon fill="lime" points="189,654 190,655 190,656 189,657 190,658 190,659 189,660 190,661 190,666 210,666 211,667 212,666 211,665 211,654" stroke="black" stroke-width="1" /><polygon fill="lime" points="977,653 976,654 955,654 955,665 954,666 954,667 955,666 975,666 976,667 976,665 977,664 977,656 976,655 977,654" stroke="black" stroke-width="1" /><polygon fill="lime" points="838,653 838,667 839,666 845,666 846,667 847,666 887,666 888,667 889,667 889,658 861,658 859,656 860,655 860,654 839,654" stroke="black" stroke-width="1" /><polygon fill="lime" points="666,653 665,654 643,654 643,667 644,666 666,666 666,661 665,660 665,658 666,657" stroke="black" stroke-width="1" /><polygon fill="lime" points="343,653 342,654 320,654 320,658 319,659 296,659 295,658 295,654 272,654 272,663 273,664 273,667 343,667" stroke="black" stroke-width="1" /><polygon fill="lime" points="121,653 121,667 122,666 128,666 129,667 151,667 152,666 153,666 154,667 170,667 171,666 172,667 172,658 144,658 143,657 143,654 122,654" stroke="black" stroke-width="1" /><polygon fill="lime" points="88,652 88,653 87,654 65,654 65,667 66,666 88,666" stroke="black" stroke-width="1" /><polygon fill="lime" points="955,637 955,650 956,649 975,649 976,650 977,650 976,649 976,647 977,646 977,644 976,643 977,642 977,640 976,639 976,638 977,637" stroke="black" stroke-width="1" /><polygon fill="lime" points="907,637 907,649 929,649 929,637" stroke="black" stroke-width="1" /><polygon fill="lime" points="783,637 783,650 784,649 804,649 805,650 805,637" stroke="black" stroke-width="1" /><polygon fill="lime" points="728,637 728,638 750,638 750,637" stroke="black" stroke-width="1" /><polygon fill="lime" points="683,637 683,649 684,650 685,649 707,649 706,648 706,647 705,646 705,645 704,644 704,637" stroke="black" stroke-width="1" /><polygon fill="lime" points="558,637 558,638 559,639 559,645 560,646 560,650 561,650 562,649 578,649 579,650 580,650 581,651 581,653 580,654 561,654 561,659 562,660 562,666 563,667 564,666 582,666 583,667 583,663 582,662 582,657 581,656 581,650 580,649 580,643 579,642 579,637" stroke="black" stroke-width="1" /><polygon fill="lime" points="533,637 533,641 532,642 532,646 531,647 531,650 532,650 533,649 550,649 551,650 551,648 552,647 552,640 553,639 553,637" stroke="black" stroke-width="1" /><polygon fill="lime" points="466,637 466,639 465,640 465,643 464,644 464,646 463,647 463,650 464,649 502,649 503,650 504,650 504,637" stroke="black" stroke-width="1" /><polygon fill="lime" points="407,637 407,650 408,649 446,649 447,650 448,650 447,649 447,646 446,645 446,642 445,641 445,638 444,637" stroke="black" stroke-width="1" /><polygon fill="lime" points="272,637 272,649 273,650 274,649 288,649 289,650 295,650 295,637" stroke="black" stroke-width="1" /><polygon fill="lime" points="235,637 236,638 258,638 258,637" stroke="black" stroke-width="1" /><polygon fill="lime" points="189,637 189,639 190,640 190,650 191,649 208,649 209,650 210,649 211,650 211,638 212,637" stroke="black" stroke-width="1" /><polygon fill="lime" points="121,637 121,650 126,650 127,649 129,649 130,650 131,650 132,649 133,650 134,650 135,649 138,649 139,650 140,649 141,649 143,651 143,637" stroke="black" stroke-width="1" /><polygon fill="lime" points="666,636 665,637 643,637 643,650 644,649 664,649 666,651" stroke="black" stroke-width="1" /><polygon fill="lime" points="343,636 342,637 320,637 320,650 321,650 322,649 323,650 324,649 330,649 331,650 332,650 333,649 334,649 335,650 336,649 337,649 338,650 343,650" stroke="black" stroke-width="1" /><polygon fill="lime" points="783,620 783,633 805,633 805,620 804,621 784,621" stroke="black" stroke-width="1" /><polygon fill="lime" points="683,620 683,631 682,632 682,633 703,633 704,632 704,620 703,621 696,621 695,620 694,621 693,621 692,620 691,621 689,621 688,620 687,620 686,621 684,621" stroke="black" stroke-width="1" /><polygon fill="lime" points="272,620 272,632 273,633 273,634 274,633 295,633 295,620 294,621 274,621 273,620" stroke="black" stroke-width="1" /><polygon fill="lime" points="65,620 65,634 66,633 87,633 88,634 88,636 87,637 65,637 65,650 88,650 88,633 87,632 87,620 86,621 66,621" stroke="black" stroke-width="1" /><polygon fill="lime" points="440,619 438,621 435,621 434,620 433,621 408,621 407,620 407,633 443,633 443,630 442,629 442,626 441,625 441,623 440,622" stroke="black" stroke-width="1" /><polygon fill="lime" points="320,596 320,617 342,617 343,618 343,619 341,621 320,621 320,633 342,633 343,634 343,596" stroke="black" stroke-width="1" /><polygon fill="lime" points="272,596 273,597 273,613 272,614 272,618 273,617 295,617 295,596" stroke="black" stroke-width="1" /><polygon fill="lime" points="907,595 907,617 928,617 929,618 929,619 927,621 910,621 909,620 907,620 907,633 929,633 929,617 930,616 952,616 954,618 954,620 955,621 955,633 976,633 976,632 977,631 977,624 976,623 977,622 977,620 955,620 954,619 954,618 955,617 977,617 976,616 976,611 975,610 975,608 974,607 974,606 973,605 973,604 968,599 967,599 965,597 963,597 962,596 959,596 958,595" stroke="black" stroke-width="1" /><polygon fill="lime" points="837,595 837,621 838,622 838,631 837,632 837,633 859,633 860,634 860,636 859,637 838,637 838,650 839,649 860,649 860,622 859,621 859,620 853,620 852,621 851,620 850,621 841,621 840,620 838,620 837,619 837,618 838,617 893,617 893,595" stroke="black" stroke-width="1" /><polygon fill="lime" points="759,595 759,617 781,617 782,618 783,617 827,617 827,595" stroke="black" stroke-width="1" /><polygon fill="lime" points="702,595 701,596 698,596 697,597 695,597 694,598 693,598 691,600 690,600 688,602 688,603 686,605 686,606 685,607 685,608 684,609 684,611 683,612 683,618 684,617 705,617 706,616 726,616 727,617 749,617 750,618 750,619 748,621 739,621 738,620 736,620 735,621 734,621 733,620 730,620 729,621 728,620 728,633 750,633 750,617 749,616 750,615 749,614 749,611 748,610 748,608 747,607 747,606 746,605 746,604 741,599 740,599 739,598 738,598 737,597 735,597 734,596 731,596 730,595" stroke="black" stroke-width="1" /><polygon fill="lime" points="643,595 643,617 665,617 666,618 666,619 665,620 664,620 663,621 648,621 647,620 643,620 643,633 666,633 666,612 665,611 665,597 666,596 666,595" stroke="black" stroke-width="1" /><polygon fill="lime" points="539,595 539,601 538,602 538,607 537,608 537,613 536,614 536,620 535,621 535,627 534,628 534,633 553,633 553,631 554,630 554,625 555,624 557,626 557,633 578,633 578,631 577,630 577,624 576,623 576,620 575,620 574,621 537,621 536,620 536,618 537,617 575,617 576,618 575,617 575,613 574,612 574,606 573,605 573,601 572,600 572,595" stroke="black" stroke-width="1" /><polygon fill="lime" points="477,595 477,597 476,598 476,601 475,602 475,604 474,605 474,608 473,609 473,612 472,613 472,616 471,617 503,617 504,618 504,620 503,621 471,621 470,620 470,623 469,624 469,627 468,628 468,631 467,632 467,634 468,633 503,633 504,634 504,595" stroke="black" stroke-width="1" /><polygon fill="lime" points="407,595 407,618 408,617 439,617 439,616 438,615 438,612 437,611 437,608 436,607 436,605 435,604 435,601 434,600 434,598 433,597 433,595" stroke="black" stroke-width="1" /><polygon fill="lime" points="212,595 211,596 205,596 204,597 203,597 202,598 201,598 199,600 198,600 195,603 195,604 193,606 193,607 192,608 192,609 191,610 191,612 190,613 190,617 211,617 212,618 212,619 210,621 209,620 208,621 200,621 199,620 198,621 192,621 191,620 189,620 189,622 190,623 190,633 212,633 211,632 211,622 212,621 212,617 213,616 214,617 223,617 224,616 233,616 234,617 256,617 257,618 257,620 256,621 237,621 236,620 235,620 236,621 236,622 235,623 236,624 235,625 235,631 236,632 235,633 258,633 258,621 257,620 257,613 256,612 256,610 255,609 255,608 254,607 254,606 253,605 253,604 248,599 247,599 246,598 245,598 244,597 243,597 242,596 237,596 236,595" stroke="black" stroke-width="1" /><polygon fill="lime" points="120,595 120,597 121,598 121,599 120,600 120,621 121,622 121,633 142,633 143,634 143,620 142,620 141,621 122,621 120,619 120,618 121,617 176,617 176,595" stroke="black" stroke-width="1" /><polygon fill="lime" points="41,595 41,617 110,617 110,595" stroke="black" stroke-width="1" /><polygon fill="lime" points="547,489 547,518 567,538 567,556 580,556 580,532 564,516 564,515 563,514 562,514 560,512 560,489" stroke="black" stroke-width="1" /><polygon fill="lime" points="505,489 505,556 518,556 518,489" stroke="black" stroke-width="1" /><polygon fill="lime" points="463,489 463,512 454,521 453,521 449,525 449,526 443,532 443,556 456,556 456,538 476,518 476,489" stroke="black" stroke-width="1" /><polygon fill="lime" points="639,418 639,431 675,431 691,447 719,447 720,448 720,434 699,434 694,429 693,429 682,418" stroke="black" stroke-width="1" /><polygon fill="lime" points="341,418 325,434 303,434 303,448 304,447 332,447 332,446 333,445 334,445 348,431 385,431 385,418" stroke="black" stroke-width="1" /><polygon fill="lime" points="639,375 639,388 720,388 720,375" stroke="black" stroke-width="1" /><polygon fill="lime" points="303,375 303,388 385,388 385,375" stroke="black" stroke-width="1" /><polygon fill="lime" points="693,314 675,332 639,332 639,345 682,345 699,328 720,328 720,314" stroke="black" stroke-width="1" /><polygon fill="lime" points="303,314 303,327 321,327 322,328 323,327 341,345 385,345 385,332 348,332 330,314" stroke="black" stroke-width="1" /><polygon fill="lime" points="424,266 424,267 401,290 401,450 414,463 415,463 416,464 416,465 417,466 418,466 424,472 424,473 425,473 426,474 598,474 604,468 604,467 607,464 608,464 609,463 609,462 621,450 622,450 622,290 598,266" stroke="black" stroke-width="1" /><polygon fill="lime" points="567,173 567,189 566,190 566,191 547,210 547,251 560,251 560,215 578,197 578,196 579,195 580,195 580,173" stroke="black" stroke-width="1" /><polygon fill="lime" points="505,173 505,251 518,251 518,173" stroke="black" stroke-width="1" /><polygon fill="lime" points="443,173 443,196 462,215 462,251 475,251 475,210 476,209 456,189 456,173" stroke="black" stroke-width="1" /></svg>